<?xml version="1.0" encoding="UTF-8"?>
<svg id="Layer_2" data-name="Layer 2" xmlns="http://www.w3.org/2000/svg" viewBox="0 0 179.63 179.62">
  <defs>
    <style>
      .cls-1, .cls-2 {
        stroke-width: 0px;
      }

      .cls-2 {
        fill: #0073ca;
      }

      .cls-3 {
        fill: none;
        stroke: #ffe41f;
        stroke-miterlimit: 10;
        stroke-width: 3px;
      }
    </style>
  </defs>
  <g id="NAV_BAR" data-name="NAV BAR">
    <g>
      <circle class="cls-3" cx="89.81" cy="89.81" r="88.31" transform="translate(-26.63 140.55) rotate(-68.54)"/>
      <path class="cls-2" d="m36.91,104.65s-.18,0-.43-.08l-18.34-6.29c-.29-.1-.55-.33-.68-.59-.14-.29-.16-.62-.06-.91l15.46-45.04c.16-.48.62-.8,1.13-.8.13,0,.26.02.38.06l18.42,6.31c.06.02.12.05.19.09l.16.1,3.17,1.12c1.14.4,2.34.61,3.57.61,1.63,0,3.27-.38,4.72-1.08l1.8-.88c1.79-.86,3.8-1.32,5.82-1.32,1.45,0,2.87.23,4.21.69l35.91,12.38c.49.17.82.64.8,1.16-.1,1.44-.7,6.41-4.3,8.9-1.39.97-3.03,1.46-4.89,1.46-1.5,0-3.16-.31-4.95-.93l-13.89-4.76-.53,1.26c-1.53,3.64-4.47,8.57-9.79,11.42-2.75,1.48-5.83,2.23-9.16,2.23-2.89,0-6.06-.59-9.44-1.74-.29-.1-.53-.31-.67-.6-.14-.29-.16-.62-.06-.92.16-.47.62-.79,1.13-.79.13,0,.26.02.38.06,3.08,1.05,5.99,1.58,8.66,1.58,2.96,0,5.67-.65,8.06-1.94,6.69-3.59,9.07-10.91,9.48-12.34.1-.36.33-.65.62-.81.17-.09.35-.14.55-.14.13,0,.27.02.4.07l15.07,5.16c1.55.53,2.95.8,4.16.8,1.38,0,2.57-.34,3.54-1.01,1.73-1.22,2.55-3.3,2.93-4.84l.33-1.3-35.1-12.09c-1.13-.39-2.31-.58-3.5-.58-1.64,0-3.27.38-4.72,1.09l-1.79.88c-1.79.86-3.79,1.32-5.79,1.32-1.5,0-2.97-.25-4.37-.74l-2.39-.84-15.06,43.83c-.17.48-.62.8-1.14.8Zm-16.86-8.24l16.15,5.53,14.65-42.76-16.15-5.53-14.65,42.76Z"/>
      <path class="cls-1" d="m75.99,142.47c-2.59,0-5-1.5-6.14-3.81-.36-.76-.57-1.56-.65-2.39l-.19-2.12-3.79,1.84c-.94.47-1.94.7-3,.7-2.59,0-5-1.5-6.14-3.81-.49-.96-.73-2.02-.7-3.17l.03-1.5h-1.5c-.72,0-1.45-.12-2.18-.36-1.72-.58-3.1-1.8-3.9-3.45-1.14-2.33-.86-5.09.73-7.19l.91-1.2-1.22-.88c-.88-.63-1.6-1.49-2.1-2.49-.78-1.62-.89-3.47-.3-5.21.58-1.72,1.81-3.11,3.45-3.9l12.77-6.25c.16-.08.34-.12.51-.12.46,0,.87.26,1.08.68.14.28.16.6.05.9-.11.3-.32.55-.61.69l-12.76,6.25c-1.06.53-1.85,1.43-2.24,2.54-.39,1.09-.31,2.33.22,3.39.75,1.53,2.29,2.49,4,2.49.67,0,1.32-.15,1.93-.44l7.32-3.59,16.72-8.19c.16-.08.33-.12.51-.12.46,0,.87.26,1.08.68.14.28.16.6.05.9-.1.3-.32.54-.61.69l-15.44,7.57-1.87.91-6.72,3.29-3.29,1.62c-1.08.53-1.89,1.45-2.27,2.58-.38,1.12-.3,2.32.23,3.38.53,1.05,1.43,1.84,2.54,2.23.45.16.93.25,1.43.25.68,0,1.36-.16,1.97-.47l9.5-4.66.77-.39,19.91-9.77c.16-.08.33-.12.51-.12.46,0,.87.26,1.08.68.14.28.16.6.05.9-.11.3-.32.55-.61.69l-26.85,13.14c-1.06.53-1.86,1.43-2.24,2.54-.39,1.09-.31,2.33.22,3.39.75,1.54,2.29,2.5,4,2.5.69,0,1.34-.16,1.96-.46l9.2-4.51,18.31-8.95c.16-.08.33-.12.51-.12.46,0,.87.26,1.08.68.14.28.16.6.05.9-.11.3-.32.55-.61.69l-18.31,8.95-.42.21c-1.07.53-1.88,1.44-2.26,2.58-.38,1.12-.3,2.32.23,3.38.75,1.54,2.29,2.5,4,2.5.68,0,1.34-.16,1.96-.46l33.47-16.37c7.07-3.44,13.63-7.93,19.51-13.32l7.11-6.55-20.55-41.97c-.14-.28-.16-.6-.05-.9.1-.3.32-.54.61-.69l17.49-8.54c.15-.07.34-.11.52-.11.13,0,.26.02.38.06.31.11.54.31.69.62l20.95,42.68c.28.58.03,1.3-.56,1.59l-17.33,8.49-7.64,7.04c-6.01,5.52-12.77,10.13-20.07,13.7l-33.48,16.37c-.93.47-1.94.7-2.99.7Zm44.16-80.95l19.86,40.63,15.34-7.51-19.86-40.63-15.34,7.51Z"/>
      <path class="cls-2" d="m104.65,126.38c-.8-2.23-.37-4.82,1.18-6.67.69-.85,1.53-1.47,2.56-1.9l1.29-.53-.61-1.37c-.29-.66-.38-1.44-.45-2.18-.16-1.74.45-3.56,1.67-5,1.3-1.55,3.21-2.43,5.23-2.43.55,0,1.1.06,1.64.19l1.46.35.31-1.47c.23-1.06.72-2.07,1.43-2.93,1.16-1.37,2.81-2.22,4.64-2.39.21-.02.41-.03.62-.03,1.61,0,3.11.55,4.35,1.6l5.29,4.45-1.77,1.63-5.07-4.26c-.82-.68-1.8-1.03-2.85-1.03-.12,0-.25,0-.38.02-1.15.08-2.25.65-3.01,1.57-1.1,1.31-1.35,3.1-.66,4.67.27.62.67,1.15,1.19,1.59l4.06,3.41c-.64.52-1.28,1.03-1.91,1.51l-3.69-3.1-2.81-2.35c-.81-.68-1.83-1.05-2.87-1.05-.14,0-.27,0-.41.02-1.18.11-2.24.67-3,1.58-.75.91-1.11,2.05-1.01,3.22.03.48.15.95.35,1.41.27.62.7,1.18,1.22,1.61l4.5,3.78-2.31,1.13-.86-.73c-.82-.68-1.8-1.03-2.85-1.03-.13,0-.25,0-.38.02-1.15.08-2.25.65-3.01,1.57-.96,1.14-1.28,2.66-.88,4.08l-2.21,1.08Z"/>
    </g>
  </g>
</svg>