<?xml version="1.0" encoding="UTF-8"?>
<svg id="Layer_2" data-name="Layer 2" xmlns="http://www.w3.org/2000/svg" viewBox="0 0 179.62 179.62">
  <defs>
    <style>
      .cls-1 {
        stroke: #0073ca;
        stroke-width: 2.26px;
      }

      .cls-1, .cls-2, .cls-3, .cls-4 {
        fill: none;
      }

      .cls-2, .cls-3, .cls-5, .cls-4 {
        stroke-miterlimit: 10;
      }

      .cls-2, .cls-3, .cls-4 {
        stroke-width: 3px;
      }

      .cls-2, .cls-5, .cls-4 {
        stroke: #000;
      }

      .cls-3 {
        stroke: #ffe41f;
      }

      .cls-5 {
        fill: #fff;
        stroke-width: 2.19px;
      }

      .cls-4 {
        stroke-linecap: round;
      }
    </style>
  </defs>
  <g id="NAV_BAR" data-name="NAV BAR">
    <g>
      <circle class="cls-3" cx="89.81" cy="89.81" r="88.31" transform="translate(-27.53 138.42) rotate(-67.5)"/>
      <line class="cls-4" x1="89.38" y1="56.6" x2="89.38" y2="93.05"/>
      <line class="cls-4" x1="89.79" y1="91.03" x2="106.59" y2="116.14"/>
      <path class="cls-2" d="m118.91,124.11c-8.11,6.89-18.44,10.68-29.1,10.68-24.8,0-44.97-20.17-44.97-44.97s20.17-44.97,44.97-44.97c6.25,0,12.41,1.3,18.07,3.79l-6.44.77c-2,.24-3.43,2.05-3.19,4.05.22,1.85,1.8,3.21,3.62,3.21.14,0,.29,0,.44-.03l22.37-2.67-7.8-21c-.7-1.89-2.8-2.85-4.69-2.15-1.89.7-2.85,2.8-2.15,4.69l2.33,6.26c-7.02-3.3-14.73-5.03-22.55-5.03-29.27,0-53.07,23.81-53.07,53.07s23.81,53.07,53.07,53.07c12.57,0,24.77-4.48,34.34-12.6"/>
      <path class="cls-1" d="m144.07,101.91v8.82h-33.57l-1.58-5.53c2.06-1.84,3.58-3.8,4.54-5.86.96-2.06,1.45-4.61,1.45-7.64v-.13h-7.18v-7.57h5.33c-.83-2.98-1.25-5.73-1.25-8.23,0-2.98.67-5.57,2.01-7.77,1.34-2.19,3.22-3.86,5.63-5,2.41-1.14,5.18-1.71,8.29-1.71,5.09,0,9,1.38,11.72,4.15,2.72,2.76,4.17,6.36,4.34,10.8h-10.33c-.09-1.75-.57-3.15-1.45-4.18-.88-1.03-2.22-1.55-4.02-1.55s-3.12.54-4.08,1.61c-.96,1.08-1.45,2.67-1.45,4.77,0,1.01.12,2.04.36,3.09.24,1.05.6,2.39,1.09,4.02h11.92v7.57h-10.27v.2c0,1.71-.35,3.49-1.05,5.33-.7,1.84-1.8,3.45-3.29,4.81h22.84Z"/>
      <path class="cls-5" d="m94.46,90.62c0,3.01-2.44,5.46-5.46,5.46s-5.46-2.44-5.46-5.46,2.44-5.46,5.46-5.46,5.46,2.44,5.46,5.46Z"/>
      <line class="cls-4" x1="50.91" y1="91.03" x2="45.24" y2="91.03"/>
      <line class="cls-4" x1="51.41" y1="112.44" x2="56.58" y2="109.45"/>
      <line class="cls-4" x1="67.86" y1="128.6" x2="70.85" y2="123.43"/>
      <line class="cls-4" x1="89.38" y1="45.26" x2="89.38" y2="50.93"/>
      <line class="cls-4" x1="89.38" y1="134.36" x2="89.38" y2="128.69"/>
      <line class="cls-4" x1="112.41" y1="128.19" x2="109.44" y2="123.05"/>
      <line class="cls-4" x1="67.86" y1="51.03" x2="70.85" y2="56.2"/>
      <line class="cls-4" x1="51.41" y1="67.19" x2="56.58" y2="70.17"/>
    </g>
  </g>
</svg>