<?xml version="1.0" encoding="UTF-8"?>
<svg id="Layer_2" data-name="Layer 2" xmlns="http://www.w3.org/2000/svg" viewBox="0 0 179.62 179.62">
  <defs>
    <style>
      .cls-1, .cls-2, .cls-3, .cls-4 {
        fill: none;
        stroke-width: 3px;
      }

      .cls-1, .cls-2, .cls-4 {
        stroke-miterlimit: 10;
      }

      .cls-1, .cls-3 {
        stroke: #000;
      }

      .cls-2 {
        stroke: #0073ca;
      }

      .cls-3 {
        stroke-linecap: round;
        stroke-linejoin: round;
      }

      .cls-4 {
        stroke: #ffe41f;
      }
    </style>
  </defs>
  <g id="NAV_BAR" data-name="NAV BAR">
    <g>
      <circle class="cls-4" cx="89.81" cy="89.81" r="88.31" transform="translate(-33.91 118.55) rotate(-58.08)"/>
      <line class="cls-1" x1="106.53" y1="94.31" x2="73.53" y2="94.31"/>
      <polyline class="cls-2" points="115.11 93.29 118.49 97.29 128.03 87.45"/>
      <line class="cls-1" x1="106.53" y1="81.31" x2="73.53" y2="81.31"/>
      <polyline class="cls-2" points="115.11 80.07 118.49 84.07 128.03 74.23"/>
      <line class="cls-1" x1="106.53" y1="68.31" x2="73.53" y2="68.31"/>
      <line class="cls-1" x1="59.53" y1="94.31" x2="67.53" y2="94.31"/>
      <line class="cls-1" x1="59.53" y1="81.31" x2="67.53" y2="81.31"/>
      <line class="cls-1" x1="59.53" y1="68.31" x2="67.53" y2="68.31"/>
      <polyline class="cls-2" points="115.11 66.85 118.49 70.84 128.03 61"/>
      <rect class="cls-1" x="42.03" y="50.31" width="98" height="68" rx="6" ry="6"/>
      <rect class="cls-1" x="73.03" y="118.31" width="38" height="16"/>
      <line class="cls-1" x1="55.53" y1="134.31" x2="128.53" y2="134.31"/>
      <line class="cls-1" x1="41.53" y1="108.31" x2="139.53" y2="108.31"/>
      <line class="cls-3" x1="90.57" y1="112.9" x2="91.98" y2="112.9"/>
    </g>
  </g>
</svg>