<?xml version="1.0" encoding="UTF-8"?>
<svg id="Layer_2" data-name="Layer 2" xmlns="http://www.w3.org/2000/svg" viewBox="0 0 187 58.29">
  <defs>
    <style>
      .cls-1 {
        fill: #0073cc;
      }

      .cls-1, .cls-2 {
        stroke-width: 0px;
      }

      .cls-2 {
        fill: #1b2021;
      }
    </style>
  </defs>
  <g id="NAV_BAR" data-name="NAV BAR">
    <g>
      <g>
        <path class="cls-2" d="m15.27,27.59l-2.01,3.55c-1.32-1.02-3.11-1.93-5.25-1.93-1.79,0-3.14.74-3.14,2.2,0,1.21.74,1.84,3.74,2.48,5.25,1.07,6.88,2.86,6.88,5.94,0,3.91-2.89,6.52-7.65,6.52-3.11,0-5.86-.96-7.84-2.7l2.28-3.46c1.35,1.43,3.6,2.36,5.69,2.36s3.3-.82,3.3-2.31c0-1.21-.88-1.95-3.9-2.56-5.23-1.1-6.71-3.08-6.71-6.02,0-3.63,3.05-6.24,7.37-6.24,2.89,0,5.5.91,7.23,2.17Z"/>
        <path class="cls-2" d="m30.62,38.84v1.29h-9.41c.08,1.76,1.32,2.78,3.3,2.78,1.43,0,2.53-.61,3.14-1.4l2.7,2.06c-1.38,1.76-3.36,2.69-5.94,2.69-4.4,0-7.32-3.03-7.32-7.21s2.89-7.29,7.04-7.29c4.37,0,6.49,3.25,6.49,7.07Zm-9.41-1.27h5.39c-.05-1.57-.96-2.75-2.61-2.75s-2.72,1.16-2.78,2.75Z"/>
        <path class="cls-2" d="m37.21,45.99h-4.07v-20.91h4.07v20.91Z"/>
        <path class="cls-2" d="m44.47,45.99h-4.07v-20.91h4.07v20.91Z"/>
      </g>
      <g>
        <path class="cls-2" d="m66.34,45.99h-4.21v-8.42h-8.2v8.42h-4.21v-20.22h4.21v7.95h8.2v-7.95h4.21v20.22Z"/>
        <path class="cls-2" d="m83.74,39.06c0,4.18-3.14,7.21-7.37,7.21s-7.34-3.03-7.34-7.21,3.11-7.29,7.34-7.29,7.37,3.11,7.37,7.29Zm-10.59,0c0,2.14,1.32,3.66,3.22,3.66s3.27-1.51,3.27-3.66-1.35-3.74-3.27-3.74-3.22,1.54-3.22,3.74Z"/>
        <path class="cls-2" d="m98.85,45.99h-3.63l-.19-1.51c-.74,1.02-2.04,1.79-4.04,1.79-3.3,0-5.03-2.39-5.03-6.13v-8.09h4.07v7.87c0,1.51.74,2.53,2.12,2.53s2.09-.8,2.64-1.62v-8.77h4.07v13.95Z"/>
        <path class="cls-2" d="m112.37,33.23l-1.49,2.86c-.88-.6-2.09-1.18-3.52-1.18-1.13,0-1.79.36-1.79,1.1,0,.69.52.99,2.48,1.46,3,.71,4.4,2.04,4.4,4.13,0,2.81-2.31,4.68-6.08,4.68-2.12,0-4.13-.6-5.36-1.59l1.54-2.92c.96.8,2.28,1.4,3.85,1.4,1.24,0,1.98-.36,1.98-1.18,0-.74-.5-1.1-2.31-1.54-3.14-.77-4.54-1.9-4.54-4.07,0-2.81,2.17-4.59,5.86-4.59,1.92,0,3.8.58,4.98,1.46Z"/>
        <path class="cls-2" d="m127.45,38.84v1.29h-9.41c.08,1.76,1.32,2.78,3.3,2.78,1.43,0,2.53-.61,3.14-1.4l2.7,2.06c-1.37,1.76-3.36,2.69-5.94,2.69-4.4,0-7.32-3.03-7.32-7.21s2.89-7.29,7.04-7.29c4.37,0,6.49,3.25,6.49,7.07Zm-9.41-1.27h5.39c-.05-1.57-.96-2.75-2.61-2.75s-2.72,1.16-2.78,2.75Z"/>
      </g>
      <rect class="cls-1" x="76.83" y="18.43" width="4.69" height="5.49"/>
      <path class="cls-1" d="m75.89,12.38c-2.62.24-4.68,2.43-4.69,5.11h4.69v-5.11Z"/>
      <rect class="cls-1" x="71.2" y="18.43" width="4.69" height="5.49"/>
      <path class="cls-1" d="m81.51,17.49c-.01-2.68-2.07-4.87-4.69-5.11v5.11h4.69Z"/>
      <g>
        <path class="cls-2" d="m147.56,56.48c-.5,0-.88.37-.88.88s.38.88.88.88.88-.37.88-.88-.37-.88-.88-.88Z"/>
        <path class="cls-2" d="m152.93,56.38c-1.12,0-1.73-.9-1.73-2.01s.6-2.03,1.7-2.03c.76,0,1.24.4,1.55.97l1.54-1.13c-.67-1.09-1.68-1.75-3.1-1.75-2.3,0-3.92,1.67-3.92,3.94s1.62,3.92,3.92,3.92c1.42,0,2.47-.68,3.12-1.79l-1.49-1.09c-.34.57-.83.97-1.58.97Z"/>
        <path class="cls-2" d="m160.51,50.43c-2.3,0-3.98,1.69-3.98,3.95s1.68,3.91,3.98,3.91,4-1.64,4-3.91-1.7-3.95-4-3.95Zm0,5.93c-1.03,0-1.74-.82-1.74-1.98s.72-2.03,1.74-2.03,1.77.83,1.77,2.03-.73,1.98-1.77,1.98Z"/>
        <path class="cls-2" d="m166.01,56.48c-.5,0-.88.37-.88.88s.38.88.88.88.88-.37.88-.88-.37-.88-.88-.88Z"/>
        <path class="cls-2" d="m172.58,55.34c-.3.45-.72.88-1.43.88s-1.15-.55-1.15-1.37v-4.26h-2.21v4.38c0,2.03.94,3.32,2.73,3.32,1.09,0,1.79-.42,2.19-.97l.1.82h1.97v-7.56h-2.21v4.75Z"/>
        <polygon class="cls-2" points="178.33 58.14 180.19 55.59 181.65 58.14 184.17 58.14 181.65 53.76 183.95 50.58 181.44 50.58 178.81 54.59 178.81 48 176.6 48 176.6 58.14 178.33 58.14"/>
      </g>
      <polyline class="cls-1" points="72.74 .94 49.83 23.85 53.46 23.85 74.55 2.75"/>
      <path class="cls-1" d="m148.55,29.63h-10.14l-.82,4.62h7.81l-1.46,3.6h-7.01l-1.4,8.14h-4.21l3.55-20.22h15.15l-1.46,3.85Z"/>
      <path class="cls-1" d="m157.05,33.59l.47-1.54h3.66l-2.45,13.95h-3.66l.11-1.49c-.91.96-2.06,1.76-4.04,1.76-3.38,0-5.25-2.78-5.25-6.35,0-4.18,2.64-8.14,7.23-8.14,1.84,0,3.19.69,3.93,1.81Zm-7.04,6.05c0,1.9.91,3.08,2.39,3.08,1.57,0,2.42-.88,3.13-1.73l.74-4.21c-.44-.83-1.32-1.46-2.67-1.46-2.23,0-3.6,2.06-3.6,4.32Z"/>
      <path class="cls-1" d="m174.12,33.31l-1.82,2.72c-.72-.61-1.84-1.13-3.25-1.13-1.18,0-2.01.38-1.98,1.24.03.66.39.94,2.06,1.38,2.78.71,3.74,1.84,3.82,3.74.11,3.05-2.81,5.01-6.46,5.01-2.28,0-4.15-.72-5.2-1.76l1.84-2.75c.85.8,2.04,1.4,3.63,1.4,1.07,0,2.12-.38,2.09-1.4-.03-.63-.47-.96-2.01-1.38-2.69-.69-3.82-1.7-3.91-3.63-.08-2.92,2.56-4.98,6.27-4.98,2.09,0,3.82.66,4.9,1.54Z"/>
      <path class="cls-1" d="m182.21,32.05h4.79l-1.43,3.44h-3.99l-.88,5.17c-.22,1.27.25,1.98,1.4,1.98.8,0,1.4-.19,1.84-.41l.72,3.3c-.72.41-1.98.74-3.36.74-3.05,0-5.28-2.2-4.65-5.72l.85-5.06h-2.5l.63-3.44h2.5l.8-4.62h4.07l-.8,4.62Z"/>
      <polygon class="cls-1" points="127.73 21.26 98.37 21.26 98.37 23.85 126.92 23.85 127.73 21.26"/>
      <path class="cls-1" d="m82.93,0h-8.41l23.85,23.85h10.32S86.53,1.69,85.96,1.12c-.57-.57-1.56-1.12-3.03-1.12Z"/>
    </g>
  </g>
</svg>